<svg xmlns="http://www.w3.org/2000/svg" width="172.901" height="50">
  <path data-name="Path 7462" d="M34.625 19.506q1.228 0 1.228 1.552a4.528 4.528 0 0 1-1.34 3.115 29.542 29.542 0 0 0-4.332 6.588 24.644 24.644 0 0 0-3 10.831 4.412 4.412 0 0 0 .67 2.724 1.924 1.924 0 0 0 1.53.86q2.568 0 6-4.176a35.625 35.625 0 0 0 4.667-7.615q.424-.86.86-.748t.045.96a44.147 44.147 0 0 1-4.98 8.575 12.519 12.519 0 0 1-3.6 3.305 8.13 8.13 0 0 1-4.254 1.306 3.538 3.538 0 0 1-3.193-1.686 7.292 7.292 0 0 1-1.072-4 18.541 18.541 0 0 1 .569-4.556 9.913 9.913 0 0 1 1.474-3.484A51.082 51.082 0 0 1 14.37 43.468a16.469 16.469 0 0 1-7.135 2.356 9.679 9.679 0 0 1-1.262.056 4.708 4.708 0 0 1-2.11-.648Q0 43.624 0 37.383T4.075 23.85a39.5 39.5 0 0 1 4.712-6.811 16.848 16.848 0 0 1-5.36-3.7 5.078 5.078 0 0 1-1.284-3.484q0-2.032.8-2.568.536-.7.971-.268a1.2 1.2 0 0 1 .022 1.172 3.513 3.513 0 0 0-.29 1.34 5.125 5.125 0 0 0 1.557 3.219 13.426 13.426 0 0 0 4.556 3.16Q22.35 1.932 35.909 1.932a10.873 10.873 0 0 1 6.733 1.9 5.894 5.894 0 0 1 2.49 4.9q0 3.272-3.651 6.331a15.524 15.524 0 0 1-5.192 2.78 36.828 36.828 0 0 1-12.249 1.82 39.167 39.167 0 0 1-11.769-1.5 67.271 67.271 0 0 0-7.447 12.732 23.106 23.106 0 0 0-2.032 7.849 9.341 9.341 0 0 0 .058 1.073q.636 4.455 4.5 4.455 4.343 0 10.071-4.723a63.853 63.853 0 0 0 7.983-8.14 50.9 50.9 0 0 0 5.817-8.307q1.908-3.596 3.404-3.596Zm8.307-11.411a3.965 3.965 0 0 0-1.9-3.54 9.521 9.521 0 0 0-5.226-1.239 21.283 21.283 0 0 0-6.621 1.072 21.827 21.827 0 0 0-6.163 3.171 44.1 44.1 0 0 0-5.09 4.291q-2.222 2.188-4.8 5.248a32.738 32.738 0 0 0 9.859 1.284q10.987 0 16.034-3.54 3.907-2.727 3.907-6.747Zm.268 24.922q-.056.212-.48 1.474t-.726 2.412a9.366 9.366 0 0 0-.29 2.3 4.446 4.446 0 0 0 .536 2.147 1.8 1.8 0 0 0 1.71.99q1.932 0 3.752-2.6a55.955 55.955 0 0 0 3.863-6.621q.424-.748.8-.592a.427.427 0 0 1 .1.569q-.156.346-.67 1.5t-.745 1.603q-.234.458-.86 1.608a11.549 11.549 0 0 1-1.072 1.72q-.447.558-1.228 1.44a6.711 6.711 0 0 1-1.474 1.318 6.694 6.694 0 0 1-3.54 1.184 4.011 4.011 0 0 1-2.568-.726 2.856 2.856 0 0 1-1.105-1.553 7.175 7.175 0 0 1-.179-1.474q0-.648.045-1.664a16.481 16.481 0 0 1 .67-3.327q.514-1.608.569-1.82a74.813 74.813 0 0 1 3.506-9.7 73.49 73.49 0 0 1 3.863-7.905 22.81 22.81 0 0 1 2.49-3.618 5.1 5.1 0 0 1 3.6-1.932q1.228 0 1.653 1.775a4.846 4.846 0 0 1 .056.8 11.651 11.651 0 0 1-1.284 4.611Q49.576 27.166 43.2 33.017Zm.424-1.72a42.523 42.523 0 0 0 5.415-7.023 52.262 52.262 0 0 0 3.941-7.2 13.283 13.283 0 0 0 1.262-4.053q0-1.072-.38-1.072-.536 0-2.032 2.121a52.85 52.85 0 0 0-4.053 7.6q-2.546 5.494-4.154 9.625ZM58.95 22.51a2.506 2.506 0 0 1-1.664.636 1.786 1.786 0 0 1-1.44-.636 1.989 1.989 0 0 1-.435-1.552 2.657 2.657 0 0 1 .916-1.563 2.506 2.506 0 0 1 1.664-.636 1.886 1.886 0 0 1 1.474.636 1.81 1.81 0 0 1 .4 1.563 2.653 2.653 0 0 1-.915 1.552Zm-5.243 19.663a3.3 3.3 0 0 0 2.143-1.016q1.976-1.976 5.036-8.1.38-.8.748-.48a.472.472 0 0 1 .112.346 4.242 4.242 0 0 1-.435 1.184q-.424.938-.77 1.686t-1.34 2.445a16.955 16.955 0 0 1-1.8 2.59q-2.198 2.528-4.151 2.528a3.242 3.242 0 0 1-2.814-1.184 4.33 4.33 0 0 1-.86-2.624 8.414 8.414 0 0 1 .7-3.16l3.428-8.732a2.987 2.987 0 0 0 .1-.86 2.617 2.617 0 0 0-.636-1.4l2.951-.046q1.228 0 1.44.458t-.309 1.414L52.959 37.25a8.33 8.33 0 0 0-.916 3.372q0 1.551 1.664 1.551Zm17.095-11.144a6.554 6.554 0 0 0 1.876-3.808q0-1.552-1.284-1.552-2.523 0-5.739 4.611a19.2 19.2 0 0 0-1.976 3.808 11.307 11.307 0 0 0-.971 4.254 5.466 5.466 0 0 0 .782 3.082 2.671 2.671 0 0 0 2.41 1.184 6.091 6.091 0 0 0 3.026-.782 8.588 8.588 0 0 0 2.657-2.468 30.3 30.3 0 0 0 1.9-2.814q.648-1.117 1.764-3.372.38-.748.648-.614a.409.409 0 0 1 .268.368 8.485 8.485 0 0 1-.726 1.775q-.726 1.53-1.44 2.87a20.069 20.069 0 0 1-2.066 2.992 8.006 8.006 0 0 1-6.6 3q-2.992 0-4.31-1.474a4.957 4.957 0 0 1-1.318-3.406 13.42 13.42 0 0 1 1.161-5.133 22.672 22.672 0 0 1 2.646-4.824q3.115-4.243 7.18-4.243a3.791 3.791 0 0 1 2.87.938 3.081 3.081 0 0 1 .882 2.177 3.952 3.952 0 0 1-1.5 3.1 2.078 2.078 0 0 1-1.262.7 1.21 1.21 0 0 1-.878-.369Zm6.431 4.075a10.63 10.63 0 0 0-.748 4.075 3.839 3.839 0 0 0 .67 2.378 2.244 2.244 0 0 0 1.9.882q4.879 0 8.843-9.156.38-.86.916-.759a.255.255 0 0 1 .212.268 21.674 21.674 0 0 1-1.206 2.814 22.768 22.768 0 0 1-2.434 4.209 8.123 8.123 0 0 1-6.755 3.752 5.181 5.181 0 0 1-3.651-1.4 4.918 4.918 0 0 1-1.5-3.8 13.158 13.158 0 0 1 1.15-5.125 19.547 19.547 0 0 1 3.138-5.036 12.072 12.072 0 0 1 4.556-3.406 5.885 5.885 0 0 1 2.356-.536 3.66 3.66 0 0 1 2.088.648 2.142 2.142 0 0 1 .916 1.664q0 3.216-3.863 6.163a11.536 11.536 0 0 1-3.316 1.63 11.221 11.221 0 0 1-3.272.736Zm9-8.575q0-1.072-.849-1.072-1.507 0-4.556 3.7a27.166 27.166 0 0 0-3.216 5.036 8.539 8.539 0 0 0 2.646-.636 10.245 10.245 0 0 0 3.026-1.72q2.949-2.527 2.949-5.307Zm59.223 14.3q0 5.092 4.131 5.092 3.863 0 9.536-4.556 6.219-4.924 8.531-10.4a27.788 27.788 0 0 0 2.624-10.507q0-4.332-1.742-6.532a5.787 5.787 0 0 0-4.8-2.2 9.76 9.76 0 0 0-1.44.112 9.128 9.128 0 0 1-1.909.313q-.614 0-.614-.313 0-.491.994-.916a4.29 4.29 0 0 1 1.5-.424h1.583a7.977 7.977 0 0 1 5.594 2.412 12.1 12.1 0 0 1 3.305 7.068 16.816 16.816 0 0 1 .156 2.311 26.167 26.167 0 0 1-1.876 9 25.5 25.5 0 0 1-9.033 11.311q-6.4 4.656-11.757 4.656-5.583 0-6.867-5.136a14.336 14.336 0 0 1-.368-3.651 21.824 21.824 0 0 1 1.117-6 88.937 88.937 0 0 1-7.5 10.451 32.06 32.06 0 0 1-5.136 4.98q-2.8 2.1-4.735 2.1-3.807 0-3.808-4.611 0-5.4 7.023-22.075 4.4-10.619 4.4-15.922 0-3.428-2.066-4.745a8.977 8.977 0 0 0-4.9-1.306 13.15 13.15 0 0 0-2.579.268q-9.48 1.932-16.827 10.239a26.128 26.128 0 0 0-5.036 8.006 26.711 26.711 0 0 0-1.586 5.683q-.179 1.854-.179 3.059a10.116 10.116 0 0 0 .449 2.754 7.971 7.971 0 0 0 1.586 2.892 7.311 7.311 0 0 0 5.84 2.412q6.219 0 9.859-6.487a12.43 12.43 0 0 0 1.876-6q0-4.4-3.908-4.4a10.321 10.321 0 0 0-1.608.156q-.96.167-.916-.212t1.452-.8a9.554 9.554 0 0 1 2.791-.424 4.39 4.39 0 0 1 4.064 2.144 6.025 6.025 0 0 1 .8 3.16 11.155 11.155 0 0 1-1.016 4.232 17.457 17.457 0 0 1-9.8 9.223 8.9 8.9 0 0 1-3.484.8 10.291 10.291 0 0 1-8.363-3.752 12.844 12.844 0 0 1-2.791-6.644 13.406 13.406 0 0 1-.1-1.664 18.7 18.7 0 0 1 1.742-7.425 28.512 28.512 0 0 1 4.745-7.425 31.364 31.364 0 0 1 6.532-5.728 41.823 41.823 0 0 1 7.448-3.858A21.354 21.354 0 0 1 125.95 0a17.848 17.848 0 0 1 6.331 1.072q5.136 2.244 5.136 8.631 0 5.248-3.584 13.4-2.468 5.516-4.723 11.836-3.217 9.011-3.217 11.745 0 1.92 1.34 1.92a3.167 3.167 0 0 0 1.664-.636q2.892-1.72 6.331-6.487t7.124-11.1q3.7-6.32 5.248-8.464t2.68-2.144a1.384 1.384 0 0 1 .536.112 1.472 1.472 0 0 1 .7 1.44 5.812 5.812 0 0 1-.3 1.932q-.29.86-2.758 6.833a43.31 43.31 0 0 0-2.736 7.883 22.373 22.373 0 0 0-.266 2.86Z" fill="#fff"/>
</svg>
