<?xml version="1.0" encoding="utf-8"?>
<!-- Generator: Adobe Illustrator 26.0.1, SVG Export Plug-In . SVG Version: 6.00 Build 0)  -->
<svg version="1.1" id="Layer_1" xmlns="http://www.w3.org/2000/svg" xmlns:xlink="http://www.w3.org/1999/xlink" x="0px" y="0px"
	 viewBox="0 0 638 504.6" style="enable-background:new 0 0 638 504.6;" xml:space="preserve">
<style type="text/css">
	.st0{fill:#FFFFFF;}
</style>
<path class="st0" d="M532.5,269c-41.9,2.8-76.8,11.7-103.7,26.4c-9.7,5.3-18.4,11.4-26,18.2c-39.2-19.8-86.5-29.9-137.2-29.1
	c-60.6,0.9-124.3,16.8-189.5,47.2c-26,12.1-51.6,25.9-76.1,40.8l0.5,0.9c24.5-15,50.1-28.7,76.1-40.8c65-30.4,128.6-46.2,189.1-47.1
	c50.4-0.8,97.4,9.2,136.4,28.8c-10.2,9.3-18.4,19.9-24.6,31.7c-21.9,42.3-12.9,92.8,4.8,121.8c13.7,22.4,40.2,36.7,64.3,36.7
	c6.3,0,12.5-1,18.2-3.1c11.6-4.2,20.5-12.8,25.7-24.7c6-13.6,7.4-31.5,4-53c-3.2-20.5-12.7-41-27.4-59.5
	c-15.3-19.1-35.4-35.4-59.9-48.4c-1.1-0.6-2.2-1.2-3.4-1.8c7.5-6.6,16-12.6,25.5-17.8c26.7-14.6,61.5-23.5,103.3-26.3
	c33.4-2.3,68.8,2.3,105.2,13.7l0.3-1C601.5,271.4,566,266.7,532.5,269z M406.7,316.7c24,12.8,44.6,29.5,59.6,48.2
	c14.6,18.3,24,38.7,27.2,59c8.4,54.3-14.6,71.3-29.1,76.6c-27,9.9-64.2-5.3-81.3-33.2c-17.5-28.7-26.5-78.8-4.7-120.8
	c6.1-11.8,14.4-22.4,24.6-31.7C404.2,315.4,405.4,316.1,406.7,316.7z M466.3,74.6c-2-14.9,1.2-44.4,44.2-74.6l0.6,0.8
	c-42.6,29.8-45.7,58.9-43.8,73.6c2.7,20.8,18.2,38.3,41.5,46.8c17.4,6.4,37.5,7.2,58,2.2c23.4-5.7,46-18.2,67.1-37.4l0.7,0.7
	c-21.2,19.3-43.9,32-67.5,37.7c-9,2.2-17.9,3.2-26.5,3.2c-11.3,0-22.1-1.8-32.1-5.5C484.9,113.6,469.1,95.7,466.3,74.6z"/>
</svg>
