<svg xmlns="http://www.w3.org/2000/svg" viewBox="0 0 98.84 63.87" xml:space="preserve">
  <path d="M98.84 10.16v8.62L49.42 8.62 0 18.77v-8.62L49.42 0l49.42 10.16zM49.56 40.09v-4.47h-4.78v4.28c0 1.2-.37 1.79-1.1 1.79-.33.02-.65-.15-.83-.43-.21-.42-.31-.89-.28-1.36V28c-.03-.45.06-.89.23-1.3.18-.31.52-.48.87-.44.33-.03.66.11.86.39.2.44.29.93.25 1.41v3.51h4.72v-4.09c.1-1.55-.48-3.06-1.6-4.14-1.18-1-2.69-1.51-4.22-1.43-1.67-.14-3.32.53-4.42 1.79-1.05 1.57-1.54 3.45-1.41 5.33v10.93c-.09 1.64.47 3.25 1.56 4.47 1.09 1.11 2.6 1.7 4.15 1.63 4-.01 6-1.99 6-5.97zm35.97-6.62c.66.1 1.23.5 1.56 1.08.36.72.52 1.52.48 2.32l-.05 8.97h-4.64v-9.28c0-.66-.13-1.09-.39-1.27-.43-.22-.92-.32-1.41-.28v10.82h-4.8V22.12h7.29c.96-.06 1.91.22 2.69.79.66.57 1.12 1.35 1.28 2.21.24 1.19.36 2.41.33 3.63.05 1.07-.13 2.15-.52 3.15-.35.75-1.02 1.33-1.82 1.57zm-2.29-4.72c.01-.47-.02-.94-.08-1.41-.02-.24-.13-.47-.3-.65-.18-.13-.41-.19-.64-.18h-1.1v4.39h1.12c.67 0 1-.72 1-2.15zM29.68 45.83h-4.8l-.01-23.71h7.29c.96-.06 1.91.22 2.69.79.66.57 1.12 1.35 1.28 2.21.24 1.19.36 2.41.33 3.63.05 1.07-.13 2.15-.53 3.15-.36.76-1.02 1.33-1.82 1.57.66.1 1.23.5 1.56 1.08.36.72.52 1.52.48 2.32l-.05 8.97h-4.64v-9.28c0-.66-.13-1.09-.39-1.27-.43-.22-.92-.32-1.41-.28v10.82zm.04-14.93h1.12c.66 0 .99-.72.99-2.15.01-.47-.02-.94-.08-1.41-.02-.24-.13-.47-.3-.65-.18-.13-.41-.19-.64-.18h-1.1v4.39zm-8.54-8.78 2.26 23.71h-4.5L18.61 42h-2.87l-.28 3.84h-4.61l2.29-23.71h8.04zm-2.93 16.1L17.2 26.15h-.22l-.88 12.07h2.15zm44.56 7.61V22.12h-4.72v8.48h-2.24v-8.48h-4.72v23.71h4.72V35.07h2.24v10.77h4.72zm6.93-10.04h4.47v-4.47h-4.47V26.7h4.67v-4.58h-9.5v23.71h9.8v-4.61h-4.97v-5.43zm-26.83 20c.42.84.63 1.77.61 2.71.01.95-.2 1.88-.62 2.73-.39.79-.99 1.45-1.73 1.92s-1.6.72-2.48.72c-.86.01-1.71-.22-2.44-.67-.72-.46-1.31-1.1-1.69-1.87-.42-.84-.63-1.77-.61-2.71-.01-.94.2-1.88.62-2.72.39-.78.98-1.44 1.71-1.92.74-.47 1.59-.73 2.47-.73.87-.01 1.72.22 2.45.67.73.45 1.32 1.09 1.71 1.87zm-.66 2.72c.01-.75-.14-1.49-.45-2.18-.27-.61-.69-1.13-1.23-1.51-.53-.36-1.15-.56-1.79-.55-.66-.01-1.3.19-1.85.56-.56.39-1 .92-1.28 1.54-.32.7-.48 1.46-.46 2.22-.01.75.14 1.49.45 2.18.27.61.69 1.13 1.23 1.51.52.36 1.15.56 1.79.55.66.01 1.3-.18 1.85-.55.56-.39 1-.92 1.28-1.54.31-.7.47-1.46.46-2.23zm17.3 4.2V58.9h3.65l-.14-.88h-3.52v-3.65h4.5l-.14-.88h-5.55v10.18h6.14l-.15-.94h-4.79zm11.37-3.6 2.59 4.55h-1.3l-2.33-4.24c-.35.04-.71.06-1.06.06h-1.44v4.18H66.2V53.48h2.77c.97-.05 1.92.2 2.74.72.7.52 1.09 1.37 1.02 2.24.01.59-.16 1.17-.49 1.65-.35.46-.8.81-1.32 1.02zm-.15-1.07c.5-.35.78-.94.74-1.55.07-.6-.18-1.19-.66-1.56-.57-.33-1.22-.48-1.87-.44h-1.6v4.02h1.48c.67.03 1.33-.13 1.91-.47zm-45.75-4.56v.93h3.41v9.25h1.2v-9.25h3.52l-.14-.93h-7.99zm28.45 8.56-2.3-8.56h-1.15l-2.2 8.56-2.35-8.67-1.17.18 2.93 10.1h1.13l2.2-8.41 2.34 8.41h1.14l2.78-10.18h-1.14l-2.21 8.57z"/>
</svg>
