<svg xmlns="http://www.w3.org/2000/svg" viewBox="0 0 150 52.01" xml:space="preserve">
  <path d="M90.37 23.44c.02.98-.24 1.95-.76 2.79-.53.82-1.47 1.29-2.45 1.21-.98.09-1.95-.32-2.57-1.08-.55-.77-.83-1.7-.8-2.65-.08-1.07.25-2.13.93-2.97.61-.67 1.49-1.04 2.39-1.01.91-.04 1.79.33 2.39 1.02.6.76.91 1.72.87 2.69zm-7.3 10.2c-.39-.01-.76.14-1.03.43-.29.36-.43.81-.4 1.27-.01.4.11.8.34 1.13.27.33.68.5 1.11.46.42.03.82-.17 1.05-.52.22-.36.33-.77.32-1.2.02-.42-.11-.82-.37-1.15-.25-.28-.63-.44-1.02-.42zm-20.62 2.01h1.27l-.61-1.79-.66 1.79zm28.46-1.83c-.14-.06-.29-.09-.45-.08h-1.34v1.38h1.27c.21.01.43-.04.61-.15.16-.13.25-.34.23-.55.02-.25-.11-.48-.32-.6zM71.14 20.15c-.33-.14-.69-.21-1.05-.19h-3.13v3.23h2.96c.5.03 1-.1 1.43-.36.38-.32.58-.81.52-1.3.06-.57-.23-1.11-.73-1.38zM150 0v52.01H0V0h150zM40.03 25.67c.04-.75-.3-1.48-.9-1.92-.45-.3-.95-.5-1.48-.6l-1.33-.3c-.59-.11-1.17-.28-1.72-.51-.38-.2-.6-.59-.58-1.02 0-.42.18-.83.5-1.11.46-.36 1.05-.53 1.63-.48.74-.08 1.48.2 1.99.74.24.35.38.75.41 1.17h1.2c.07-.89-.32-1.76-1.04-2.3-.75-.49-1.63-.75-2.53-.72-.91-.06-1.8.23-2.5.82-.58.54-.91 1.3-.88 2.09-.04.71.3 1.38.9 1.77.55.3 1.15.51 1.78.62l1.28.29c.54.1 1.06.29 1.53.56.34.26.52.67.48 1.1 0 .69-.47 1.28-1.15 1.43-.42.14-.87.21-1.31.21-.86.09-1.71-.26-2.25-.94-.24-.39-.37-.85-.38-1.31h-1.21c-.06.92.3 1.81.98 2.43.77.64 1.76.96 2.76.9.93.02 1.85-.21 2.66-.68.79-.47 1.23-1.34 1.16-2.24zm13.22-5.69h3.19v-1.13h-7.67v1.13h3.19v8.33h1.3v-8.33zm5.29 13.29h-2.81v4.05h.55v-1.84h1.99V35h-1.99v-1.23h2.26v-.5zm6.37 4.04-1.47-4.05h-.62l-1.52 4.05h.56l.44-1.21h1.6l.41 1.21h.6zm6.73-1.49h-.54c-.04.23-.13.45-.25.65-.2.31-.55.48-.92.47-.38.03-.75-.14-.99-.44-.23-.34-.35-.74-.33-1.15-.04-.46.09-.92.37-1.29.24-.28.6-.43.97-.42.27-.02.54.06.76.23.19.16.31.38.36.62h.54c-.04-.35-.2-.68-.47-.92-.33-.29-.76-.43-1.19-.4-.54-.03-1.07.2-1.41.62-.33.42-.5.94-.47 1.47-.05.65.18 1.28.63 1.75.33.29.75.44 1.18.42.49.02.96-.16 1.3-.52.25-.31.42-.69.46-1.09zm1.89-7.72c-.22-.12-.38-.34-.41-.59-.06-.26-.09-.53-.09-.8l-.04-1.27c.02-.42-.09-.83-.31-1.19-.22-.27-.51-.47-.83-.59.4-.2.74-.5.98-.87.25-.42.37-.9.35-1.39.08-.95-.46-1.85-1.33-2.23-.57-.23-1.17-.34-1.78-.32h-4.38v9.46h1.28v-4.06h2.92c.39-.02.78.04 1.15.17.45.25.72.73.69 1.24l.08 1.58c.01.25.03.5.06.75.02.11.05.22.1.32h1.57v-.21zm4.54 5.17h-3.29v.48h1.36v3.57h.56v-3.57h1.36v-.48zm6.96 1.95c.02-.49-.12-.97-.4-1.38-.38-.48-.98-.74-1.59-.69-.61-.04-1.2.25-1.55.75-.28.41-.42.91-.41 1.41-.02.54.15 1.07.48 1.5.37.42.91.65 1.47.62.6.03 1.17-.23 1.54-.71.32-.43.48-.96.46-1.5zm1.98-6.63c1.4.08 2.74-.54 3.6-1.64.74-1.02 1.12-2.26 1.08-3.52.05-1.14-.28-2.27-.94-3.21-.89-1.12-2.28-1.72-3.71-1.61-1.43-.08-2.8.58-3.62 1.75-.65.97-.99 2.12-.95 3.28-.05 1.27.34 2.51 1.11 3.52.86.96 2.12 1.49 3.43 1.43zm4.92 8.64c-.09-.05-.16-.14-.18-.25-.02-.11-.04-.23-.04-.34l-.02-.54c.01-.18-.04-.36-.13-.51-.09-.12-.22-.2-.36-.25.17-.09.32-.21.42-.37.11-.18.16-.39.15-.6.03-.41-.19-.79-.57-.96-.24-.1-.5-.14-.76-.14h-1.87v4.05h.55v-1.74h1.25c.17-.01.34.02.49.07.19.11.31.31.29.53l.03.67c0 .11.01.21.03.32.01.05.02.09.04.14h.67v-.08zm6.67-3.96h-.64l-1.16 1.95-1.16-1.95H95l1.53 2.42v1.63h.55v-1.63l1.52-2.42zm10.02-14.42h-1.22v7.66l-4.78-7.66h-1.51v9.46h1.22v-7.65l4.85 7.65h1.44v-9.46zm18.21 4.4h-4.16v1.06h2.96c.07.89-.24 1.76-.85 2.41-.59.51-1.35.77-2.12.74-.93.08-1.84-.32-2.42-1.06-.52-.82-.78-1.78-.74-2.75-.08-1.06.24-2.1.9-2.93.56-.64 1.36-1 2.21-.98.64-.03 1.28.14 1.84.47.51.35.86.9.96 1.51h1.26c-.12-1.1-.76-2.06-1.72-2.59-.71-.36-1.5-.53-2.3-.52-1.2-.04-2.36.45-3.16 1.34-.9 1.05-1.36 2.4-1.29 3.78-.08 1.38.4 2.72 1.32 3.75.79.72 1.82 1.11 2.89 1.09.74.03 1.48-.14 2.14-.48.43-.27.82-.6 1.15-.99l.31 1.22h.82v-5.07z"/>
</svg>
