<svg xmlns="http://www.w3.org/2000/svg" viewBox="0 0 176.1 52.12" xml:space="preserve">
  <path d="M71.9 33.06h2.05v15.06h-2.06l.01-15.06zm17.82-22.13 7.72 12.19h2.29V8.06h-1.94v12.2l-7.61-12.2h-2.41v15.06h1.95V10.93zm-21.17 3.36h-7.83V8.06h-2.06v15.06h2.06v-7.04h7.83v7.04h2.06V8.06h-2.06v6.23zM57.34 34.86h5.08v13.27h2.07V34.86h5.08v-1.79H57.34v1.79zm56.61-24.6c1.07 1.48 1.61 3.28 1.53 5.1.02 1.49-.28 2.98-.9 4.34-.91 2.19-3.1 3.56-5.47 3.43h-6.08V8.06h6.1c1.87-.09 3.67.73 4.82 2.2zm-.55 5.45c.09-1.53-.3-3.05-1.11-4.35-.86-1.09-2.21-1.67-3.59-1.55h-3.62v11.57h3.64c.57.02 1.15-.06 1.7-.22.81-.28 1.49-.82 1.95-1.54.44-.71.74-1.51.87-2.34.1-.51.15-1.04.16-1.57zm11.9 5.09-4.33-12.73h-2.92v15.06H120v-8.89c0-.35-.01-.91-.03-1.66s-.03-1.32-.03-1.69v-.46l4.33 12.7h2.02l4.29-12.71c0 .81-.01 1.58-.02 2.29s-.02 1.22-.02 1.53v8.89h1.94V8.06h-2.89L125.3 20.8zm-43.15-2.19H76.2l-1.64 4.51h-2.09l5.67-15.06h2.31l5.46 15.06h-2.23l-1.53-4.51zm-.65-1.66-2.29-6.66-2.43 6.66h4.72zm60.78-8.89 5.47 15.06h-2.23l-1.53-4.51h-5.96l-1.63 4.51h-2.1l5.67-15.06h2.31zm1.05 8.89-2.29-6.66-2.43 6.66h4.72zM96.94 41.23h8.32v-1.74h-8.32v-4.57h8.99v-1.85H94.96l-.01 15.06h11.14v-1.79h-9.15v-5.11zm63.68-30.97c1.07 1.48 1.61 3.28 1.53 5.1.02 1.49-.28 2.98-.9 4.34-.91 2.19-3.1 3.57-5.47 3.43h-6.08V8.06h6.1c1.87-.09 3.67.73 4.82 2.2zm-.56 5.45c.09-1.53-.3-3.05-1.11-4.35-.86-1.09-2.2-1.67-3.58-1.55h-3.62v11.57h3.64c.57.02 1.15-.06 1.7-.22.81-.28 1.5-.82 1.95-1.54.44-.71.74-1.51.87-2.34.1-.51.15-1.04.15-1.57zm6.9 5.62v-5.11h8.32v-1.74h-8.32V9.91h8.99V8.06h-10.98l-.01 15.06h11.14v-1.79h-9.14zM84.46 45.8l-4.32-12.73h-2.92l-.01 15.06h1.95v-8.89c0-.36-.01-.91-.03-1.67s-.03-1.32-.03-1.69v-.46l4.33 12.7h2.02l4.3-12.71c0 .81-.01 1.58-.02 2.29s-.02 1.22-.02 1.53v8.89h1.94V33.06h-2.89l-4.3 12.74zM7.6 42.48l-2.23 5.48c-.62 1.56.13 3.32 1.69 3.95.87.35 1.85.28 2.65-.2l.02-.01c.13-.08.25-.16.36-.25l5.26-3.67c-2.95-1.16-5.6-2.97-7.75-5.3zm32.94 5.48-2.21-5.42c-2.16 2.31-4.8 4.11-7.75 5.26l5.22 3.64c.12.1.24.18.37.26l.02.01c1.45.84 3.31.35 4.15-1.1.47-.8.54-1.78.2-2.65zm-.72-41.2C38.06 2.66 34.03 0 29.56 0H16.34C11.86 0 7.82 2.68 6.07 6.81 1.13 8.77-1.28 14.36.68 19.3c.48 1.22 1.21 2.33 2.14 3.25C4.68 16.03 9.58 10.8 15.96 8.52c-1.74-1.53-3.98-2.38-6.29-2.39 1.57-2.1 4.05-3.34 6.68-3.35h13.22c2.63 0 5.11 1.24 6.68 3.35-2.28.03-4.48.87-6.2 2.38 3.13 1.12 5.96 2.97 8.23 5.4.02.02.04.05.07.07.26.28.51.56.76.86l.03.03c1.87 2.25 3.25 4.86 4.06 7.68 3.76-3.76 3.76-9.85 0-13.6-.97-.96-2.12-1.7-3.38-2.19zm2.57 21.5c.01 10.7-8.66 19.38-19.36 19.39-10.7.01-19.38-8.66-19.39-19.36C3.63 17.58 12.3 8.9 23 8.89c10.7 0 19.38 8.67 19.39 19.37zm-2.49 0c0-9.32-7.56-16.88-16.88-16.88-9.33 0-16.9 7.55-16.9 16.88-.01 9.33 7.55 16.9 16.88 16.9 9.33-.01 16.89-7.57 16.9-16.9zm-1.59 0c.01 8.45-6.84 15.31-15.29 15.31S7.72 36.73 7.71 28.28C7.7 19.83 14.55 12.97 23 12.97c8.45-.01 15.3 6.84 15.31 15.29zm-21.58-3.08c0 1.38 1.12 2.5 2.49 2.5 1.38 0 2.5-1.11 2.51-2.49 0-1.38-1.11-2.5-2.49-2.51-1.38 0-2.5 1.12-2.51 2.5zm5.01 7.51c0-1.38-1.12-2.51-2.51-2.51s-2.51 1.12-2.51 2.5 1.12 2.51 2.51 2.51c1.39.01 2.51-1.11 2.51-2.5 0 .01 0 0 0 0zm2.51-7.51c0 1.38 1.12 2.5 2.49 2.5 1.38 0 2.5-1.11 2.51-2.5 0-1.38-1.11-2.5-2.49-2.5-1.39 0-2.51 1.12-2.51 2.5zm5.01 7.51c0-1.38-1.12-2.51-2.51-2.51-1.38 0-2.51 1.12-2.51 2.51 0 1.38 1.12 2.51 2.51 2.51 1.39-.01 2.51-1.13 2.51-2.51z"/>
</svg>
