<svg xmlns="http://www.w3.org/2000/svg" viewBox="0 0 184.38 36" xml:space="preserve">
  <path d="M41.01 32.37c0-4.09-3.32-7.41-7.41-7.41s-7.41 3.32-7.41 7.41c0 1.3.33 2.51.92 3.57h12.98c.58-1.05.92-2.27.92-3.57z"/>
  <path d="M0 35.95h2.93V2.93H46.7v33.02h2.93V0H0v1.46z"/>
  <path d="M16.03 21.12c4.09 0 7.41-3.32 7.41-7.41S20.12 6.3 16.03 6.3s-7.41 3.32-7.41 7.41 3.32 7.41 7.41 7.41zM65.51.33h9.83c2.54 0 4.45.7 5.72 2.11 1.27 1.41 1.92 3.5 1.95 6.26l.08 16.67c.03 3.51-.58 6.15-1.82 7.92-1.24 1.77-3.3 2.65-6.18 2.65h-9.58V.33zm8.42 29.32c.93.15 1.8-.49 1.94-1.42.03-.16.03-.33.01-.49V9.37c.02-.61-.04-1.21-.19-1.8-.09-.36-.35-.66-.69-.81-.49-.16-1.01-.23-1.53-.21h-.79v23.09h1.25zm20.52 6.63c-2.47.17-4.88-.8-6.55-2.63-1.49-1.76-2.24-4.22-2.24-7.4V9.29c0-3.07.75-5.38 2.24-6.94S91.58 0 94.45 0c2.87 0 5.06.78 6.55 2.34 1.49 1.56 2.24 3.88 2.24 6.94v16.96c0 3.21-.75 5.68-2.24 7.42-1.67 1.83-4.08 2.79-6.55 2.62zm0-6.55c.57.04 1.09-.29 1.29-.83.25-.75.36-1.53.33-2.32V9.16c.02-.64-.08-1.28-.31-1.89-.22-.49-.73-.79-1.26-.73-1.19 0-1.78.9-1.78 2.7v17.37c-.04.79.09 1.58.37 2.32.24.54.78.85 1.36.8zm11.65 6.22V.33h10.86l2.99 21.73L122.94.33h10.95v35.62h-6.51V10.28l-4.1 25.67h-6.39l-4.35-25.67v25.67h-6.44zm30.6 0V.33h6.88v35.62h-6.88zm9.74 0V.33h7.34l3.28 17.04V.33h6.88v35.62h-6.97l-3.57-17.83v17.83h-6.96zm29.15.33c-2.47.17-4.88-.8-6.55-2.63-1.49-1.76-2.24-4.22-2.24-7.4V9.29c0-3.07.75-5.38 2.24-6.94S172.72 0 175.59 0c2.87 0 5.06.78 6.55 2.34s2.24 3.88 2.24 6.94v16.96c0 3.21-.75 5.68-2.24 7.42-1.67 1.83-4.08 2.79-6.55 2.62zm0-6.55c.57.04 1.09-.29 1.29-.83.25-.75.36-1.53.33-2.32V9.16c.02-.64-.08-1.28-.31-1.89-.22-.49-.73-.79-1.26-.73-1.19 0-1.78.9-1.78 2.7v17.37c-.04.79.09 1.58.37 2.32.24.54.79.85 1.36.8z"/>
</svg>
