<?xml version="1.0" encoding="UTF-8"?>
<svg width="55px" height="56px" viewBox="0 0 55 56" version="1.1" xmlns="http://www.w3.org/2000/svg" xmlns:xlink="http://www.w3.org/1999/xlink">
    <title>Untitled</title>
    <g id="Page-1" stroke="none" stroke-width="1" fill="none" fill-rule="evenodd">
        <g id="home-page-icon-2" transform="translate(0.036353, 0.000144)" fill="#FFFFFF" fill-rule="nonzero">
            <path d="M54.7636475,24.4998564 C54.6636475,23.5998564 53.8636475,22.9998564 52.9636475,23.0998564 C52.0636475,23.1998564 51.4636475,23.9998564 51.5636475,24.8998564 C53.0636475,38.1998564 43.3636475,50.1998564 30.0636475,51.6998564 C29.1636475,51.7998564 28.2636475,51.7998564 27.3636475,51.7998564 C19.8636475,51.7998564 12.7636475,48.3998564 8.06364747,42.4998564 L11.2636475,42.4998564 C12.0636475,42.3998564 12.6636475,41.6998564 12.6636475,40.7998564 C12.6636475,39.9998564 12.0636475,39.2998564 11.2636475,39.1998564 L4.46364747,39.1998564 C4.06364747,39.1998564 3.56364747,39.2998564 3.26364747,39.5998564 C2.96364747,39.9998564 2.76364747,40.3998564 2.76364747,40.8998564 L2.76364747,48.1998564 C2.76364747,48.1998564 2.76364747,49.3998564 4.36364747,49.3998564 C5.06364747,49.5998564 5.76364747,48.9998564 5.96364747,48.2998564 L5.96364747,44.8998564 C13.2636475,53.7998564 25.2636475,57.1998564 36.2636475,53.5998564 C48.4636475,49.4998564 56.1636475,37.3998564 54.7636475,24.4998564 L54.7636475,24.4998564 Z M0.16364747,30.4998564 C0.26364747,31.3998564 1.06364747,31.9998564 1.96364747,31.8998564 C2.86364747,31.7998564 3.46364747,30.9998564 3.36364747,30.0998564 C1.86364747,16.7998564 11.4636475,4.79985644 24.7636475,3.39985644 C25.6636475,3.29985644 26.5636475,3.29985644 27.4636475,3.29985644 C34.9636475,3.29985644 42.0636475,6.69985644 46.7636475,12.5998564 L43.5636475,12.5998564 C42.7636475,12.6998564 42.1636475,13.3998564 42.1636475,14.2998564 C42.1636475,15.0998564 42.7636475,15.7998564 43.5636475,15.8998564 L50.4636475,15.8998564 C50.8636475,15.8998564 51.3636475,15.7998564 51.6636475,15.4998564 C51.9636475,15.0998564 52.1636475,14.6998564 52.1636475,14.1998564 L52.1636475,6.69985644 C52.1636475,6.69985644 52.1636475,5.49985644 50.5636475,5.49985644 C49.8636475,5.39985644 49.1636475,5.99985644 48.9636475,6.69985644 L48.9636475,10.0998564 C41.6636475,1.29985644 29.6636475,-2.20014356 18.7636475,1.39985644 C6.46364747,5.49985644 -1.23635253,17.5998564 0.16364747,30.4998564 Z M25.2636475,27.4998564 L29.0636475,30.2998564 C29.2636475,30.4998564 29.3636475,30.7998564 29.1636475,31.0998564 C29.0636475,31.1998564 28.8636475,31.2998564 28.7636475,31.2998564 L27.5636475,31.2998564 C27.2636475,31.2998564 26.9636475,31.0998564 26.9636475,30.6998564 C26.9636475,29.7998564 26.2636475,29.0998564 25.3636475,29.0998564 C24.4636475,29.0998564 23.7636475,29.7998564 23.7636475,30.6998564 C23.7636475,32.3998564 24.8636475,33.8998564 26.5636475,34.2998564 L26.5636475,34.3998564 C26.5636475,35.2998564 27.2636475,35.9998564 28.1636475,35.9998564 C29.0636475,35.9998564 29.7636475,35.2998564 29.7636475,34.3998564 L29.7636475,34.2998564 C31.3636475,33.7998564 32.5636475,32.2998564 32.5636475,30.5998564 C32.5636475,29.3998564 31.9636475,28.2998564 31.0636475,27.5998564 L27.2636475,24.7998564 C27.0636475,24.5998564 26.9636475,24.2998564 27.1636475,23.9998564 C27.2636475,23.8998564 27.4636475,23.7998564 27.5636475,23.7998564 L28.7636475,23.7998564 C29.0636475,23.7998564 29.3636475,23.9998564 29.3636475,24.3998564 C29.3636475,25.2998564 30.0636475,25.9998564 30.9636475,25.9998564 C31.8636475,25.9998564 32.5636475,25.2998564 32.5636475,24.3998564 C32.5636475,22.6998564 31.4636475,21.1998564 29.7636475,20.7998564 L29.7636475,20.6998564 C29.7636475,19.7998564 29.0636475,19.0998564 28.1636475,19.0998564 C27.2636475,19.0998564 26.5636475,19.7998564 26.5636475,20.6998564 L26.5636475,20.7998564 C24.5636475,21.3998564 23.3636475,23.3998564 23.9636475,25.3998564 C24.1636475,26.2998564 24.5636475,26.9998564 25.2636475,27.4998564 Z M28.1636475,41.2998564 C35.6636475,41.2998564 41.7636475,35.1998564 41.7636475,27.6998564 C41.7636475,20.1998564 35.6636475,14.0998564 28.1636475,14.0998564 C20.6636475,14.0998564 14.5636475,20.1998564 14.5636475,27.6998564 C14.5636475,35.1998564 20.6636475,41.1998564 28.1636475,41.2998564 Z M28.1636475,17.2998564 C33.8636475,17.2998564 38.5636475,21.9998564 38.5636475,27.6998564 C38.5636475,33.3998564 33.8636475,37.9998564 28.1636475,37.9998564 C22.4636475,37.9998564 17.7636475,33.2998564 17.7636475,27.5998564 C17.7636475,21.8998564 22.3636475,17.2998564 28.1636475,17.2998564 Z" id="Shape"></path>
        </g>
    </g>
</svg>