<svg xmlns="http://www.w3.org/2000/svg" viewBox="0 0 55 55" xml:space="preserve">
  <path d="M22.8 33.9H6c-1.4 0-2.5-1.2-2.5-2.6V14h43.3v7.6c0 .9.8 1.7 1.7 1.7 1 0 1.8-.7 1.8-1.7v-12c0-3.3-2.7-6.1-6-6.1H6c-3.3 0-6 2.8-6 6.1v21.7c0 3.3 2.7 6.1 6 6.1H22.9c1 0 1.7-.8 1.7-1.8s-.8-1.7-1.8-1.7zM6 7h38.3c1.4 0 2.5 1.2 2.5 2.6v.9H3.5v-.9C3.5 8.2 4.6 7 6 7zm.6 16c0-1 .8-1.8 1.8-1.8h4.7c1 0 1.8.7 1.8 1.7s-.7 1.8-1.7 1.8H8.4c-1 .1-1.8-.7-1.8-1.7zm0 5.9c0-1 .8-1.8 1.8-1.8h9.4c1 0 1.7.8 1.7 1.8 0 .9-.8 1.7-1.7 1.7H8.4c-1 0-1.8-.8-1.8-1.7zm34.9-4.3c-7.4 0-13.5 6-13.5 13.5 0 7.4 6 13.5 13.5 13.5C49 51.5 55 45.5 55 38c0-7.4-6-13.4-13.5-13.4zm0 24C35.7 48.6 31 43.8 31 38s4.7-10.5 10.5-10.5S52.1 32.2 52.1 38s-4.8 10.6-10.6 10.6zm5.2-14c.6.6.6 1.5 0 2.1l-5.5 5.5c-.3.3-.7.4-1 .4-.4 0-.8-.1-1-.4l-2.8-2.8c-.6-.6-.6-1.5 0-2.1.6-.6 1.5-.6 2.1 0l1.8 1.8 4.4-4.4c.5-.7 1.4-.7 2-.1z"/>
</svg>
