<svg xmlns="http://www.w3.org/2000/svg" viewBox="0 0 55 55" xml:space="preserve">
  <path d="M27.5 0C14.2 0 3.3 10.8 3.3 24.2v13.1c0 2.7 2.2 4.8 4.8 4.8H10c.9 2.5 3.6 3.8 6.2 2.9 1.9-.7 3.2-2.5 3.2-4.6v-13c0-2.7-2.2-4.8-4.8-4.8-2 0-3.9 1.3-4.6 3.2H8.1c-.5 0-1.1.1-1.6.3v-1.9c-.2-11.6 9-21.1 20.6-21.3 11.6-.2 21.1 9 21.3 20.6V26.1c-.5-.2-1.1-.3-1.6-.3h-1.9c-.9-2.5-3.6-3.8-6.2-2.9-1.9.7-3.2 2.5-3.2 4.6v13.1c0 2.7 2.2 4.8 4.8 4.8.5 0 .9-.1 1.4-.2-.6 2-2.5 3.4-4.6 3.4H32c-.9-2.5-3.7-3.8-6.2-2.9-2.5.9-3.8 3.7-2.9 6.2.9 2.5 3.7 3.8 6.2 2.9 1.4-.5 2.5-1.6 2.9-2.9h5.1c4.4 0 8.1-3.6 8.1-8.1v-1.6h1.6c2.7 0 4.8-2.2 4.8-4.8V24.2C51.7 10.8 40.8 0 27.5 0zM13 27.4c0-.9.8-1.6 1.7-1.6.9 0 1.5.7 1.6 1.6v13.1c0 .9-.8 1.6-1.7 1.6-.9 0-1.5-.7-1.6-1.6V27.4zM8.2 29h1.6v9.9H8.2c-.9 0-1.6-.7-1.6-1.6v-6.7c0-.9.7-1.6 1.6-1.6zm19.3 22.8c-.9 0-1.6-.7-1.6-1.6 0-.9.7-1.6 1.6-1.6.9 0 1.6.7 1.6 1.6 0 .9-.7 1.6-1.6 1.6zM42 40.5c0 .9-.8 1.6-1.7 1.6-.9 0-1.5-.7-1.6-1.6V27.4c0-.9.8-1.6 1.7-1.6.9 0 1.5.7 1.6 1.6v13.1zm6.4-3.2c0 .9-.7 1.6-1.6 1.6h-1.6V29h1.6c.9 0 1.6.7 1.6 1.6v6.7z"/>
</svg>
