<?xml version="1.0" encoding="UTF-8"?>
<svg width="55px" height="49px" viewBox="0 0 55 49" version="1.1" xmlns="http://www.w3.org/2000/svg" xmlns:xlink="http://www.w3.org/1999/xlink">
    <title>Untitled</title>
    <g id="Page-1" stroke="none" stroke-width="1" fill="none" fill-rule="evenodd">
        <g id="home-page-icon-1" transform="translate(0.000000, 0.500000)" fill="#FFFFFF" fill-rule="nonzero">
            <path d="M22.8,30.4 L6,30.4 C4.6,30.4 3.5,29.2 3.5,27.8 L3.5,10.5 L46.8,10.5 L46.8,18.1 C46.8,19 47.6,19.8 48.5,19.8 C49.5,19.8 50.3,19.1 50.3,18.1 L50.3,6.1 C50.3,2.8 47.6,1.77635684e-15 44.3,1.77635684e-15 L6,1.77635684e-15 C2.7,1.77635684e-15 0,2.8 0,6.1 L0,27.8 C0,31.1 2.7,33.9 6,33.9 L22.9,33.9 C23.9,33.9 24.6,33.1 24.6,32.1 C24.6,31.1 23.8,30.4 22.8,30.4 Z M6,3.5 L44.3,3.5 C45.7,3.5 46.8,4.7 46.8,6.1 L46.8,7 L3.5,7 L3.5,6.1 C3.5,4.7 4.6,3.5 6,3.5 Z M6.6,19.5 C6.6,18.5 7.4,17.7 8.4,17.7 L13.1,17.7 C14.1,17.7 14.9,18.4 14.9,19.4 C14.9,20.4 14.2,21.2 13.2,21.2 L8.4,21.2 C7.4,21.3 6.6,20.5 6.6,19.5 Z M6.6,25.4 C6.6,24.4 7.4,23.6 8.4,23.6 L17.8,23.6 C18.8,23.6 19.5,24.4 19.5,25.4 C19.5,26.3 18.7,27.1 17.8,27.1 L8.4,27.1 C7.4,27.1 6.6,26.3 6.6,25.4 Z M41.5,21.1 C34.1,21.1 28,27.1 28,34.6 C28,42 34,48.1 41.5,48.1 C49,48 55,42 55,34.5 C55,27.1 49,21.1 41.5,21.1 L41.5,21.1 Z M41.5,45.1 C35.7,45.1 31,40.3 31,34.5 C31,28.7 35.7,24 41.5,24 C47.3,24 52.1,28.7 52.1,34.5 C52.1,40.3 47.3,45.1 41.5,45.1 L41.5,45.1 Z M46.7,31.1 C47.3,31.7 47.3,32.6 46.7,33.2 L41.2,38.7 C40.9,39 40.5,39.1 40.2,39.1 C39.8,39.1 39.4,39 39.2,38.7 L36.4,35.9 C35.8,35.3 35.8,34.4 36.4,33.8 C37,33.2 37.9,33.2 38.5,33.8 L40.3,35.6 L44.7,31.2 C45.2,30.5 46.1,30.5 46.7,31.1 Z" id="Shape"></path>
        </g>
    </g>
</svg>