<svg xmlns="http://www.w3.org/2000/svg" viewBox="0 0 55 55" xml:space="preserve">
  <path d="m32.8 13.5 3.8 2.8c.2.2.3.5.1.8-.1.1-.3.2-.4.2h-1.2c-.3 0-.6-.2-.6-.6 0-.9-.7-1.6-1.6-1.6-.9 0-1.6.7-1.6 1.6 0 1.7 1.1 3.2 2.8 3.6v.1c0 .9.7 1.6 1.6 1.6.9 0 1.6-.7 1.6-1.6v-.1c1.6-.5 2.8-2 2.8-3.7 0-1.2-.6-2.3-1.5-3l-3.8-2.8c-.2-.2-.3-.5-.1-.8.1-.1.3-.2.4-.2h1.2c.3 0 .6.2.6.6 0 .9.7 1.6 1.6 1.6.9 0 1.6-.7 1.6-1.6 0-1.7-1.1-3.2-2.8-3.6 0-.9-.7-1.6-1.6-1.6-.9 0-1.6.7-1.6 1.6v.1c-2 .6-3.2 2.6-2.6 4.6.1.8.6 1.5 1.3 2zm2.9 13.7c7.5 0 13.6-6.1 13.6-13.6S43.2 0 35.6 0C28.1 0 22 6.1 22 13.6c.1 7.5 6.1 13.6 13.7 13.6zm0-24C41.4 3.2 46 7.9 46 13.6S41.4 24 35.6 24c-5.7 0-10.4-4.7-10.4-10.4.1-5.7 4.7-10.4 10.5-10.4zm18.2 27.7c-1.7-2.2-4.9-2.7-7.2-1.1l-6.1 4.1c-.9-1.6-2.6-2.7-4.5-2.7h-4.4c-4.8-4.5-12.4-4.3-16.9.5-.7.8-1.3 1.6-1.8 2.5l-.8.5-.2-.6c-.3-.8-1.2-1.3-2-1l-8.9 3c-.8.3-1.3 1.2-1 2l5.4 15.7c.3.8 1.2 1.3 2 1l8.9-3c.8-.3 1.3-1.2 1-2v-.1l14.1-.4c3.8 0 7.5-1.2 10.7-3.4l10.6-7.6c2.4-1.7 2.9-5 1.2-7.3l-.1-.1zM8 51.3 3.7 38.7l5.8-2 4.3 12.7L8 51.3zm42.9-15.6-10.6 7.6c-2.6 1.8-5.7 2.8-8.8 2.8l-15.1.5-3-8.7 1.8-1.1c.3-.2.5-.4.6-.7 2.1-4.3 7.4-6.1 11.7-4 .9.5 1.8 1.1 2.5 1.8.3.3.7.5 1.2.5h5c1 0 1.8.8 1.8 1.8s-.8 1.8-1.8 1.8h-9.1c-.9 0-1.6.7-1.6 1.6 0 .9.7 1.6 1.6 1.6h9.1c2.3 0 4.4-1.6 4.9-3.9l7.5-5c.9-.6 2.2-.4 2.8.5.6 1 .4 2.3-.5 2.9z"/>
</svg>
