<?xml version="1.0" encoding="UTF-8"?>
<svg width="56px" height="55px" viewBox="0 0 56 55" version="1.1" xmlns="http://www.w3.org/2000/svg" xmlns:xlink="http://www.w3.org/1999/xlink">
    <title>Untitled</title>
    <g id="Page-1" stroke="none" stroke-width="1" fill="none" fill-rule="evenodd">
        <g id="home-page-icon-4" transform="translate(0.012000, 0.000000)" fill="#FFFFFF" fill-rule="nonzero">
            <path d="M32.788,13.5 L36.588,16.3 C36.788,16.5 36.888,16.8 36.688,17.1 C36.588,17.2 36.388,17.3 36.288,17.3 L35.088,17.3 C34.788,17.3 34.488,17.1 34.488,16.7 C34.488,15.8 33.788,15.1 32.888,15.1 C31.988,15.1 31.288,15.8 31.288,16.7 C31.288,18.4 32.388,19.9 34.088,20.3 L34.088,20.4 C34.088,21.3 34.788,22 35.688,22 C36.588,22 37.288,21.3 37.288,20.4 L37.288,20.3 C38.888,19.8 40.088,18.3 40.088,16.6 C40.088,15.4 39.488,14.3 38.588,13.6 L34.788,10.8 C34.588,10.6 34.488,10.3 34.688,10 C34.788,9.9 34.988,9.8 35.088,9.8 L36.288,9.8 C36.588,9.8 36.888,10 36.888,10.4 C36.888,11.3 37.588,12 38.488,12 C39.388,12 40.088,11.3 40.088,10.4 C40.088,8.7 38.988,7.2 37.288,6.8 C37.288,5.9 36.588,5.2 35.688,5.2 C34.788,5.2 34.088,5.9 34.088,6.8 L34.088,6.9 C32.088,7.5 30.888,9.5 31.488,11.5 C31.588,12.3 32.088,13 32.788,13.5 L32.788,13.5 Z M35.688,27.2 C43.188,27.2 49.288,21.1 49.288,13.6 C49.288,6.1 43.188,0 35.588,0 C28.088,0 21.988,6.1 21.988,13.6 C22.088,21.1 28.088,27.2 35.688,27.2 L35.688,27.2 Z M35.688,3.2 C41.388,3.2 45.988,7.9 45.988,13.6 C45.988,19.3 41.388,24 35.588,24 C29.888,24 25.188,19.3 25.188,13.6 C25.288,7.9 29.888,3.2 35.688,3.2 L35.688,3.2 Z M53.888,30.9 C52.188,28.7 48.988,28.2 46.688,29.8 L40.588,33.9 C39.688,32.3 37.988,31.2 36.088,31.2 L31.688,31.2 C26.888,26.7 19.288,26.9 14.788,31.7 C14.088,32.5 13.488,33.3 12.988,34.2 L12.188,34.7 L11.988,34.1 C11.688,33.3 10.788,32.8 9.988,33.1 L1.088,36.1 C0.288,36.4 -0.212,37.3 0.088,38.1 L5.488,53.8 C5.788,54.6 6.688,55.1 7.488,54.8 L16.388,51.8 C17.188,51.5 17.688,50.6 17.388,49.8 L17.388,49.7 L31.488,49.3 C35.288,49.3 38.988,48.1 42.188,45.9 L52.788,38.3 C55.188,36.6 55.688,33.3 53.988,31 L53.888,30.9 Z M7.988,51.3 L3.688,38.7 L9.488,36.7 L13.788,49.4 L7.988,51.3 Z M50.888,35.7 L40.288,43.3 C37.688,45.1 34.588,46.1 31.488,46.1 L16.388,46.6 L13.388,37.9 L15.188,36.8 C15.488,36.6 15.688,36.4 15.788,36.1 C17.888,31.8 23.188,30 27.488,32.1 C28.388,32.6 29.288,33.2 29.988,33.9 C30.288,34.2 30.688,34.4 31.188,34.4 L36.188,34.4 C37.188,34.4 37.988,35.2 37.988,36.2 C37.988,37.2 37.188,38 36.188,38 L27.088,38 C26.188,38 25.488,38.7 25.488,39.6 C25.488,40.5 26.188,41.2 27.088,41.2 L36.188,41.2 C38.488,41.2 40.588,39.6 41.088,37.3 L48.588,32.3 C49.488,31.7 50.788,31.9 51.388,32.8 C51.988,33.8 51.788,35.1 50.888,35.7 L50.888,35.7 Z" id="Shape"></path>
        </g>
    </g>
</svg>