<svg xmlns="http://www.w3.org/2000/svg" viewBox="0 0 55 55" xml:space="preserve">
  <path d="M54.8 24.5c-.1-.9-.9-1.5-1.8-1.4-.9.1-1.5.9-1.4 1.8 1.5 13.3-8.2 25.3-21.5 26.8-.9.1-1.8.1-2.7.1-7.5 0-14.6-3.4-19.3-9.3h3.2c.8-.1 1.4-.8 1.4-1.7 0-.8-.6-1.5-1.4-1.6H4.5c-.4 0-.9.1-1.2.4-.3.4-.5.8-.5 1.3v7.3s0 1.2 1.6 1.2c.7.2 1.4-.4 1.6-1.1v-3.4c7.3 8.9 19.3 12.3 30.3 8.7 12.2-4.1 19.9-16.2 18.5-29.1zm-54.6 6c.1.9.9 1.5 1.8 1.4.9-.1 1.5-.9 1.4-1.8C1.9 16.8 11.5 4.8 24.8 3.4c.9-.1 1.8-.1 2.7-.1 7.5 0 14.6 3.4 19.3 9.3h-3.2c-.8.1-1.4.8-1.4 1.7 0 .8.6 1.5 1.4 1.6h6.9c.4 0 .9-.1 1.2-.4.3-.4.5-.8.5-1.3V6.7s0-1.2-1.6-1.2c-.7-.1-1.4.5-1.6 1.2v3.4C41.7 1.3 29.7-2.2 18.8 1.4 6.5 5.5-1.2 17.6.2 30.5zm25.1-3 3.8 2.8c.2.2.3.5.1.8-.1.1-.3.2-.4.2h-1.2c-.3 0-.6-.2-.6-.6 0-.9-.7-1.6-1.6-1.6-.9 0-1.6.7-1.6 1.6 0 1.7 1.1 3.2 2.8 3.6v.1c0 .9.7 1.6 1.6 1.6.9 0 1.6-.7 1.6-1.6v-.1c1.6-.5 2.8-2 2.8-3.7 0-1.2-.6-2.3-1.5-3l-3.8-2.8c-.2-.2-.3-.5-.1-.8.1-.1.3-.2.4-.2h1.2c.3 0 .6.2.6.6 0 .9.7 1.6 1.6 1.6.9 0 1.6-.7 1.6-1.6 0-1.7-1.1-3.2-2.8-3.6v-.1c0-.9-.7-1.6-1.6-1.6-.9 0-1.6.7-1.6 1.6v.1c-2 .6-3.2 2.6-2.6 4.6.2.9.6 1.6 1.3 2.1zm2.9 13.8c7.5 0 13.6-6.1 13.6-13.6s-6.1-13.6-13.6-13.6-13.6 6.1-13.6 13.6 6.1 13.5 13.6 13.6zm0-24c5.7 0 10.4 4.7 10.4 10.4S33.9 38 28.2 38s-10.4-4.7-10.4-10.4 4.6-10.3 10.4-10.3z"/>
</svg>
