<?xml version="1.0" encoding="UTF-8"?>
<svg width="49px" height="56px" viewBox="0 0 49 56" version="1.1" xmlns="http://www.w3.org/2000/svg" xmlns:xlink="http://www.w3.org/1999/xlink">
    <title>Untitled</title>
    <g id="Page-1" stroke="none" stroke-width="1" fill="none" fill-rule="evenodd">
        <g id="home-page-icon-3" transform="translate(0.300000, 0.000000)" fill="#FFFFFF" fill-rule="nonzero">
            <path d="M24.2,0 C10.9,0 -8.8817842e-16,10.8 -8.8817842e-16,24.2 L-8.8817842e-16,37.3 C-8.8817842e-16,40 2.2,42.1 4.8,42.1 L6.7,42.1 C7.6,44.6 10.3,45.9 12.9,45 C14.8,44.3 16.1,42.5 16.1,40.4 L16.1,27.4 C16.1,24.7 13.9,22.6 11.3,22.6 C9.3,22.6 7.4,23.9 6.7,25.8 L4.8,25.8 C4.3,25.8 3.7,25.9 3.2,26.1 L3.2,24.2 C3,12.6 12.2,3.1 23.8,2.9 C35.4,2.7 44.9,11.9 45.1,23.5 L45.1,26.1 C44.6,25.9 44,25.8 43.5,25.8 L41.6,25.8 C40.7,23.3 38,22 35.4,22.9 C33.5,23.6 32.2,25.4 32.2,27.5 L32.2,40.6 C32.2,43.3 34.4,45.4 37,45.4 C37.5,45.4 37.9,45.3 38.4,45.2 C37.8,47.2 35.9,48.6 33.8,48.6 L28.7,48.6 C27.8,46.1 25,44.8 22.5,45.7 C20,46.6 18.7,49.4 19.6,51.9 C20.5,54.4 23.3,55.7 25.8,54.8 C27.2,54.3 28.3,53.2 28.7,51.9 L33.8,51.9 C38.2,51.9 41.9,48.3 41.9,43.8 L41.9,42.2 L43.5,42.2 C46.2,42.2 48.3,40 48.3,37.4 L48.3,24.2 C48.4,10.8 37.5,0 24.2,0 Z M9.7,27.4 C9.7,26.5 10.5,25.8 11.4,25.8 C12.3,25.8 12.9,26.5 13,27.4 L13,40.5 C13,41.4 12.2,42.1 11.3,42.1 C10.4,42.1 9.8,41.4 9.7,40.5 L9.7,27.4 L9.7,27.4 Z M4.9,29 L6.5,29 L6.5,38.9 L4.9,38.9 C4,38.9 3.3,38.2 3.3,37.3 L3.3,30.6 C3.3,29.7 4,29 4.9,29 L4.9,29 Z M24.2,51.8 C23.3,51.8 22.6,51.1 22.6,50.2 C22.6,49.3 23.3,48.6 24.2,48.6 C25.1,48.6 25.8,49.3 25.8,50.2 C25.8,51.1 25.1,51.8 24.2,51.8 Z M38.7,40.5 C38.7,41.4 37.9,42.1 37,42.1 C36.1,42.1 35.5,41.4 35.4,40.5 L35.4,27.4 C35.4,26.5 36.2,25.8 37.1,25.8 C38,25.8 38.6,26.5 38.7,27.4 L38.7,40.5 Z M45.1,37.3 C45.1,38.2 44.4,38.9 43.5,38.9 L41.9,38.9 L41.9,29 L43.5,29 C44.4,29 45.1,29.7 45.1,30.6 L45.1,37.3 L45.1,37.3 Z" id="Shape"></path>
        </g>
    </g>
</svg>