<svg xmlns="http://www.w3.org/2000/svg" viewBox="0 0 50 50" xml:space="preserve">
  <path d="M35.02 36.75c.17 0 .35-.02.52-.07 1.14-.28 1.84-1.44 1.55-2.58l-3.68-14.88 3.63-10.69c.01-.03.02-.05.03-.08.33-1.13-.31-2.31-1.44-2.65l-5.25-1.56-1.65-3.11C28.36.44 27.64 0 26.85 0h-3.86c-.82 0-1.57.48-1.93 1.22l-1.4 2.95-5.19 1.3c-.05.01-.1.03-.15.04-1.12.37-1.72 1.57-1.35 2.69l3.63 11.02-3.68 14.88c-.04.17-.06.34-.06.52 0 1.18.96 2.13 2.13 2.13h8.64v5.05l-8.42 5.57c-.65.43-.83 1.31-.4 1.97.43.65 1.31.83 1.97.4l6.85-4.53v2.97c0 .78.64 1.42 1.42 1.42.78 0 1.42-.64 1.42-1.42v-3.03l7.32 4.63c.66.42 1.54.22 1.96-.44.42-.66.22-1.54-.44-1.96l-8.84-5.59v-5.03h8.55zM15.89 8.04l4.77-1.19c.62-.15 1.14-.58 1.41-1.15l1.35-2.85h2.99l1.59 3c.27.51.73.88 1.28 1.05l4.83 1.43-3.15 9.3H19.05l-3.16-9.59zm3.32 12.41H30.8l3.32 13.46H15.88l3.33-13.46z" fill="#fff"/>
</svg>
