<svg xmlns="http://www.w3.org/2000/svg" viewBox="0 0 50 50" xml:space="preserve">
  <path d="m39.27 8.37-12.43-5.1c-.32-.13-.67-.2-1.02-.2H15.04c-.35 0-.69.07-1.02.2L1.68 8.28c-1.26.51-1.94 1.88-1.59 3.2l1.73 6.47c.03.11.06.21.11.32.56 1.38 2.13 2.05 3.51 1.49l3.26-1.31v16.77c0 1.49 1.21 2.7 2.7 2.7h18.34c1.49 0 2.69-1.21 2.7-2.69V18.52l3.11 1.2c.08.03.17.06.25.08 1.44.39 2.92-.45 3.32-1.89l1.73-6.32c.35-1.32-.32-2.7-1.58-3.22zm-14.96-2.6c-.53 1.24-1.64 2.79-3.89 2.79s-3.36-1.55-3.89-2.79h7.78zm12.21 11.42-3.11-1.2c-.31-.12-.64-.18-.97-.18-1.49 0-2.7 1.21-2.7 2.7v16.71H11.4V18.45c0-1.49-1.21-2.7-2.7-2.7-.34 0-.69.07-1.01.19l-3.26 1.31-1.73-6.47 11.13-4.52c.81 2.27 2.78 5 6.6 5s5.79-2.73 6.6-5l11.22 4.6-1.73 6.33zm13.07 15.78c.54.52.55 1.37.03 1.91l-1.79 1.85c-.38.39-.89.61-1.43.61h-.02c-.53 0-1.05-.21-1.43-.59l-1.9-1.88c-.53-.52-.54-1.38-.01-1.91.52-.53 1.38-.53 1.91-.01l.09.09V8.1l-.08.08c-.53.52-1.39.52-1.91-.01s-.52-1.38.01-1.91l1.51-1.49c.41-.41.92-.72 1.47-.9.12-.05.24-.07.37-.07.54 0 1.06.23 1.43.62l1.79 1.85c.52.54.51 1.39-.03 1.91-.52.5-1.33.49-1.85.01v24.78c.51-.49 1.32-.5 1.84 0zm-11.32 8.78c.4.39.62.92.62 1.48-.02.54-.24 1.06-.63 1.44l-1.84 1.86c-.53.53-1.38.53-1.91.01s-.54-1.38-.01-1.91l.15-.15H6.23l.15.15c.52.53.52 1.38-.01 1.91-.53.52-1.38.52-1.91-.01l-1.84-1.85c-.39-.38-.61-.9-.63-1.44-.01-.56.21-1.1.61-1.48l1.85-1.79c.54-.52 1.39-.51 1.91.03.48.5.48 1.26.05 1.79h28.03c-.43-.52-.43-1.29.05-1.79.52-.53 1.37-.55 1.91-.03l1.87 1.78z" fill="#fff"/>
</svg>
