<svg xmlns="http://www.w3.org/2000/svg" viewBox="0 0 50 50" xml:space="preserve">
  <path d="m48.49 10.95-11.21-4.6c-.29-.12-.61-.18-.93-.18h-9.71c-.31 0-.62.06-.91.18L14.6 10.87c-.69.27-1.19.86-1.4 1.56-.02 0-.05 0-.07.01-.16.03-.32.07-.47.13L1.52 17.09c-1.13.47-1.75 1.7-1.44 2.88l1.56 5.84c.36 1.3 1.7 2.07 3.01 1.72.09-.02.17-.05.26-.09l2.95-1.18v15.13c0 1.34 1.09 2.43 2.43 2.43h16.54c1.34-.01 2.42-1.09 2.43-2.43V37.6H39.9c1.34 0 2.43-1.09 2.43-2.43V20.1l2.81 1.08c.64.24 1.36.21 1.97-.09.62-.31 1.07-.87 1.25-1.53l1.56-5.7c.32-1.19-.29-2.43-1.43-2.91zM35.02 8.59c-.47 1.12-1.48 2.54-3.52 2.54s-3.05-1.42-3.52-2.54h7.04zm-13.09 6.24s0 .01-.01.01c-.52 1.5-1.92 2.51-3.5 2.52-.65.01-1.28-.16-1.84-.49-.76-.48-1.34-1.2-1.67-2.03 0 0 0-.01-.01-.01h7.03zM26.8 41.4H10.26V26.28c0-1.34-1.08-2.43-2.42-2.43h-.02c-.31 0-.62.06-.91.17L3.98 25.2l-1.56-5.84 10.04-4.08c.41 1.15 1.08 2.2 1.99 3.05 2.39 2.04 5.93 1.93 8.19-.24.77-.8 1.36-1.75 1.73-2.8l10.11 4.15-1.56 5.7-2.81-1.08c-1.26-.48-2.67.15-3.15 1.41-.11.28-.16.57-.16.87V41.4zM46 18.9l-2.81-1.08c-1.26-.48-2.67.15-3.15 1.41-.11.28-.16.57-.16.87v15.08H29.25v-8.85l2.81 1.08c.64.24 1.36.21 1.97-.09.62-.31 1.07-.87 1.25-1.53l1.56-5.7c.31-1.19-.3-2.43-1.44-2.9l-11.21-4.6c-.29-.12-.61-.18-.93-.18h-6l8.26-3.36c.73 2.05 2.5 4.52 5.96 4.52s5.23-2.47 5.96-4.52l10.1 4.15L46 18.9z" fill="#fff"/>
</svg>
