<svg xmlns="http://www.w3.org/2000/svg" viewBox="0 0 50 50" xml:space="preserve">
  <path d="M13.74 49.99c-1.06 0-1.92-.86-1.92-1.92v-17.6H6.86c-1.68 0-3.04-1.36-3.04-3.04 0-1.04.53-2.02 1.42-2.57l18.81-11.88.06-.03v-.75l-.03-3.07c0-.43.25-.83.66-1h.02c.13-.05.26-.08.4-.08 1.63-.01 2.94-1.33 2.95-2.96 0-1.63-1.33-2.96-2.96-2.96s-2.96 1.33-2.96 2.96c0 .15.01.31.04.46.09.58-.3 1.13-.89 1.22-.58.09-1.13-.3-1.22-.89-.04-.26-.06-.53-.06-.8 0-2.81 2.28-5.09 5.1-5.1 2.81 0 5.09 2.28 5.1 5.1 0 1.35-.53 2.64-1.49 3.6-.69.7-1.57 1.18-2.52 1.38l.02 2.13v.76l.06.04L44.9 25.12c.82.54 1.32 1.45 1.32 2.43 0 1.61-1.3 2.91-2.91 2.91h-4.74v17.59c0 1.06-.86 1.92-1.92 1.92l-22.91.02zm22.65-2.14V26.46H32.4l.07.09c2.14 3.13 1.03 7.83-.29 11.22-.31.81-1.08 1.34-1.95 1.33-.28 0-.55-.05-.8-.16l-3.22-1.34v10.25h10.18zm-22.43 0h10.11V37.64l-3.11 1.31c-.26.11-.53.16-.81.16-.85 0-1.62-.52-1.94-1.31-.66-1.6-1.13-3.28-1.4-5-.36-2.57-.01-4.65 1.04-6.22.03-.04.06-.09.09-.13h-3.98v21.4zm5.66-20.06c-.59.88-1.72 3.52.55 9.17l4.3-1.81-4.8-7.44c-.02.03-.03.05-.05.08zm10.58 9.17c.58-1.44.99-2.94 1.22-4.48.31-1.52.11-3.1-.57-4.49l-4.98 7.16 4.33 1.81zm-4.99-4.61 4.07-5.85c-1.28-.61-2.69-.9-4.11-.83-1.31-.05-2.61.19-3.82.69l3.86 5.99zm18.06-4.02c.43 0 .77-.34.77-.77 0-.26-.13-.5-.35-.64L25.15 14.81 6.38 26.67c-.26.16-.42.45-.42.76 0 .5.4.9.9.9h4.96v-2.09c0-1.06.86-1.92 1.92-1.92h5.17c2.05-.7 4.2-1.08 6.37-1.15 2.15.06 4.27.45 6.3 1.15h5.02c1.06 0 1.92.86 1.92 1.92v2.09h4.75zM29.31 43.15c0-.9.73-1.63 1.63-1.63.9 0 1.63.73 1.63 1.63 0 .9-.73 1.63-1.63 1.63-.9 0-1.63-.73-1.63-1.63z" fill="#fff"/>
</svg>
